<svg preserveAspectRatio="none" width="100%" height="100%" overflow="visible" style="display: block;" viewBox="0 0 67.5 81.1591" fill="none" xmlns="http://www.w3.org/2000/svg">
<path id="Ellipse" d="M-2.95052e-06 0C10.6522 -4.27683e-07 21.1532 2.31564 30.6444 6.75759C40.1355 11.1995 48.3474 17.6417 54.6086 25.5573C60.8699 33.4729 65.0026 42.6373 66.669 52.3011C68.3353 61.9648 67.488 71.8537 64.1963 81.1591L39.8017 73.8786C41.8426 68.1093 42.3679 61.9782 41.3348 55.9867C40.3016 49.9951 37.7393 44.3132 33.8574 39.4055C29.9754 34.4979 24.884 30.5037 18.9995 27.7497C13.115 24.9957 6.60436 23.56 -1.82932e-06 23.56L-2.95052e-06 0Z" fill="var(--fill-0, #7A4A28)"/>
</svg>
