<svg preserveAspectRatio="none" width="100%" height="100%" overflow="visible" style="display: block;" viewBox="0 0 100 100" fill="none" xmlns="http://www.w3.org/2000/svg">
<g id="donut">
<path id="Ellipse" d="M50 0C58.422 1.00431e-07 66.7075 2.12736 74.0877 6.18467C81.4679 10.242 87.7037 16.0978 92.2164 23.2087C96.7291 30.3196 99.3725 38.4551 99.9013 46.8605C100.43 55.2658 98.8273 63.6685 95.2414 71.289L50 50L50 0Z" fill="var(--fill-0, #7A4A28)"/>
<path id="Ellipse_2" d="M95.2414 71.289C89.8266 82.796 80.2305 91.8073 68.4062 96.4888C56.5819 101.17 43.4181 101.17 31.5938 96.4888L50 50L95.2414 71.289Z" fill="var(--fill-0, #3FA885)"/>
<path id="Ellipse_3" d="M31.5938 96.4888C22.772 92.996 15.1261 87.0653 9.54915 79.3893C3.9722 71.7132 0.694426 62.6089 0.098668 53.1395L50 50L31.5938 96.4888Z" fill="var(--fill-0, #CF821A)"/>
<path id="Ellipse_4" d="M0.0986688 53.1395C-0.363473 45.794 0.801759 38.437 3.51118 31.5938C6.2206 24.7506 10.4074 18.5899 15.7726 13.5516L50 50L0.0986688 53.1395Z" fill="var(--fill-0, #B07840)"/>
<path id="Ellipse_5" d="M15.7726 13.5516C25.0432 4.84595 37.2827 -1.51653e-07 50 0L50 50L15.7726 13.5516Z" fill="var(--fill-0, #B19A81)"/>
</g>
</svg>
