<svg preserveAspectRatio="none" width="100%" height="100%" overflow="visible" style="display: block;" viewBox="0 0 157 40" fill="none" xmlns="http://www.w3.org/2000/svg">
<g id="logo-wrap">
<path id="PayZo Logo" fill-rule="evenodd" clip-rule="evenodd" d="M24.1189 0.106187C23.4383 0.614114 20.9821 2.06261 19.5109 2.82371C16.6931 4.28127 12.851 5.68052 9.76134 6.37434L8.67939 6.61729L8.70762 9.04726L8.73586 11.4772L9.9392 11.5072C10.831 11.5294 11.1647 11.5021 11.2283 11.4017C11.2756 11.3273 11.3149 10.711 11.3159 10.0321L11.3175 8.79799L11.7126 8.72755C12.3118 8.62063 14.9914 7.77876 16.1995 7.31776C18.5332 6.42717 21.0712 5.14739 23.1394 3.81847C23.759 3.42021 24.2908 3.09438 24.3211 3.09438C24.3513 3.09438 24.769 3.34777 25.2491 3.65746C28.0075 5.43652 31.9558 7.16201 36.027 8.36746L37.5022 8.80421L37.4327 10.9843C37.2183 17.712 35.6467 23.5754 32.6499 28.8289C32.2052 29.6085 31.7958 30.3027 31.7403 30.3716C31.6695 30.4594 31.7283 30.5434 31.9364 30.6521C32.4291 30.9096 32.8359 31.4202 32.9703 31.9496C33.04 32.2248 33.1407 32.4645 33.1939 32.4822C33.303 32.5187 34.6246 30.3453 35.4277 28.8085C37.6111 24.6304 39.0864 19.6126 39.7115 14.238C39.8981 12.6336 40.1133 8.4264 40.0651 7.32524L40.0311 6.54748L38.0843 6.02732C32.7424 4.59982 28.8712 2.94802 25.2791 0.563395C24.8734 0.294089 24.4936 0.0458738 24.435 0.0118152C24.3764 -0.0223489 24.2342 0.0201441 24.1189 0.106187ZM47.0383 20.6464V31.8808H48.9876H50.937V28.4596V25.0385L56.6534 25.0018C62.0263 24.9673 62.4142 24.9522 63.11 24.7506C64.378 24.3833 65.2471 23.89 66.0577 23.0774C66.9159 22.2172 67.2519 21.6384 67.6515 20.3323C67.923 19.4448 67.9413 19.2602 67.9459 17.3821C67.95 15.6308 67.9209 15.2667 67.7142 14.489C67.15 12.3671 66.1011 11.0211 64.3718 10.1998C62.8002 9.45343 63.1971 9.48433 54.704 9.44637L47.0383 9.41199V20.6464ZM115.699 9.66316C115.534 9.78411 115.512 9.99721 115.509 11.5091C115.506 12.7189 115.543 13.2643 115.635 13.3759C115.749 13.5126 116.672 13.5334 122.651 13.5334H129.536L125.457 17.5647C123.213 19.7818 119.872 23.09 118.032 24.916L114.686 28.2363V29.884C114.686 31.3464 114.708 31.5514 114.879 31.7063C115.056 31.8662 115.939 31.8807 125.443 31.8792C131.147 31.8782 135.866 31.8427 135.929 31.8001C136.195 31.6227 136.266 31.2266 136.282 29.856C136.296 28.5287 136.28 28.3935 136.082 28.1953C135.869 27.9817 135.782 27.9793 128.464 27.9775L121.061 27.9757L125.013 24.048C127.186 21.8879 130.565 18.5506 132.521 16.6318L136.077 13.143V11.5093C136.077 10.0605 136.055 9.85581 135.884 9.70102C135.708 9.54127 134.855 9.5265 125.789 9.5265C117.843 9.5265 115.849 9.5535 115.699 9.66316ZM16.9305 11.0818C16.5002 11.6387 15.2162 13.5069 15.2162 13.5761C15.2162 13.6077 17.7899 13.6466 20.9355 13.6626L26.6548 13.6916L27.1778 13.961C28.0271 14.3985 28.3269 14.9274 28.3716 16.0673C28.4037 16.8876 28.3758 17.0726 28.1436 17.5802C27.8506 18.2205 27.2227 18.7619 26.6629 18.8567C26.4813 18.8874 23.9383 18.924 21.0116 18.9382L15.6904 18.9638L15.6631 24.5427C15.6442 28.3967 15.6001 30.1647 15.5203 30.2609C15.4567 30.3376 15.1727 30.431 14.889 30.4686C14.6053 30.5063 14.3732 30.5807 14.3732 30.6341C14.3732 30.7794 15.0597 31.8251 15.7799 32.777C16.6827 33.9703 19.0827 36.3431 20.3267 37.2726C22.3376 38.7749 24.2075 40 24.49 40C24.7135 40 27.0848 38.5144 28.2129 37.6676C29.3002 36.8514 31.338 34.9964 31.338 34.8229C31.338 34.7706 31.099 34.7278 30.8069 34.7278C30.1969 34.7278 29.5697 34.45 29.2439 34.0354C28.9732 33.691 28.9827 33.6873 28.0118 34.5169C27.0768 35.3158 25.6359 36.3634 24.9753 36.7245L24.5135 36.977L23.7372 36.4167C22.4373 35.4783 20.6545 33.9305 19.648 32.8661L18.6934 31.8569V26.913V21.969L22.6712 21.9672C25.7217 21.9657 26.8155 21.93 27.3634 21.8139C30.7903 21.0871 32.5926 16.8581 30.9034 13.507C30.4913 12.6893 29.4652 11.6604 28.6776 11.2747C27.5084 10.7023 27.3595 10.689 22.1005 10.6877L17.2359 10.6864L16.9305 11.0818ZM51.2782 13.092L50.9346 13.1251L50.9621 17.2571L50.9897 21.389L55.8367 21.4219C61.2701 21.4588 61.8085 21.4156 62.6066 20.878C63.7679 20.0959 64.1543 19.1444 64.1547 17.0658C64.1551 15.3712 63.9439 14.7078 63.1601 13.9419C62.3176 13.1185 62.3452 13.1221 56.627 13.0884C53.8742 13.0722 51.4672 13.0738 51.2782 13.092ZM0.803529 14.9833C0.405332 15.5488 0.0447513 16.0707 0.0022868 16.1432C-0.0592499 16.248 1.1032 16.275 5.67136 16.275H11.4178L11.9998 15.5011C12.4588 14.8908 12.5819 14.6456 12.5819 14.3412V13.9552H7.05467H1.52743L0.803529 14.9833ZM145.79 15.6428C141.793 16.2056 139.183 18.4529 138.437 21.9749C138.228 22.9586 138.287 25.3959 138.543 26.3449C139.387 29.4795 141.859 31.5131 145.477 32.0482C146.868 32.254 149.353 32.2007 150.565 31.9389C153.923 31.214 156.149 29.0825 156.849 25.9231C157.09 24.8369 157.033 22.189 156.747 21.1841C155.93 18.3153 154.007 16.5409 150.958 15.8434C149.904 15.6024 146.904 15.486 145.79 15.6428ZM73.8312 16.2486C73.1637 17.1135 71.8005 19.1053 71.8005 19.2157C71.8005 19.3002 73.3907 19.3329 77.5046 19.3329C81.5341 19.3329 83.3288 19.3688 83.6176 19.4554C84.4019 19.6906 84.9718 20.5174 84.9718 21.42V21.7429L80.2038 21.7822C75.4573 21.8215 75.4319 21.8228 74.5757 22.0877C71.8686 22.925 70.3437 25.149 70.7139 27.7198C71.0067 29.7538 72.4259 31.2633 74.5401 31.7893C75.0002 31.9038 76.5206 31.9335 81.9161 31.9335H88.7125L88.7414 26.6613C88.7595 23.3409 88.7291 21.1198 88.659 20.6619C88.3812 18.8458 87.2716 17.2617 85.7713 16.5396C84.4903 15.9231 83.765 15.8532 78.6446 15.8532H74.1363L73.8312 16.2486ZM90.3235 15.9105C90.2697 15.9644 91.8576 18.9797 93.8196 22.5489C94.8556 24.4334 96.4247 27.3067 97.6492 29.561L98.5369 31.1954L98.2972 31.6172C98.1654 31.8491 97.3656 33.2394 96.5198 34.7068C95.6741 36.1741 94.9821 37.4197 94.9821 37.4747C94.9821 37.5346 95.859 37.5746 97.1685 37.5742L99.355 37.5736L99.9086 36.5462C100.213 35.981 100.869 34.7831 101.366 33.8842C101.864 32.9853 102.544 31.7516 102.879 31.1427C104.518 28.1626 106.658 24.3008 107.787 22.2853C109.898 18.5162 111.28 15.959 111.231 15.9102C111.102 15.7812 107.021 15.8518 106.912 15.985C106.852 16.0575 106.081 17.4691 105.199 19.122C103.393 22.5062 101.672 25.7014 101.122 26.6923L100.754 27.356L97.757 21.7404C96.1087 18.6518 94.7094 16.0636 94.6474 15.989C94.5337 15.8519 90.456 15.778 90.3235 15.9105ZM3.29187 19.0956C3.04994 19.3577 1.99148 20.7752 1.79591 21.0991C1.73259 21.2038 2.72349 21.2309 6.6138 21.2309H11.5113L12.073 20.4692C12.8273 19.4461 12.8001 19.5019 12.7263 19.1323L12.6609 18.8056H8.11017H3.5594L3.29187 19.0956ZM145.771 19.2162C144.258 19.6295 143.204 20.4284 142.6 21.6199C142.244 22.3208 142.241 22.3383 142.242 23.7558C142.243 25.5079 142.426 26.0731 143.299 27.0169C144.352 28.1546 145.597 28.6078 147.677 28.6104C150.95 28.6146 152.723 27.2788 153.157 24.4837C153.461 22.5234 152.592 20.5574 151.05 19.7177C149.789 19.0308 147.312 18.7954 145.771 19.2162ZM24.696 22.899C23.521 23.4202 23.4212 25.0678 24.5328 25.5956C25.1719 25.899 26.0024 25.7045 26.3529 25.1693C26.5137 24.9236 26.5328 24.9214 28.4988 24.9214C29.5899 24.9214 30.5092 24.9647 30.5419 25.0175C30.6047 25.1191 30.3173 25.365 26.6489 28.3486C25.374 29.3856 24.1528 30.391 23.9353 30.583C23.6615 30.8245 23.4347 30.9319 23.1977 30.9322C22.4265 30.933 21.7502 31.6763 21.7496 32.524C21.7485 33.8608 23.3804 34.5951 24.3223 33.6817L24.6569 33.357H27.0704H29.484L29.8255 33.6882C30.7612 34.5958 32.287 33.9249 32.2859 32.6064C32.2847 31.1994 30.5456 30.6098 29.6725 31.7205L29.4636 31.9862H27.1456C24.3751 31.9862 24.3606 31.9782 25.4705 31.0673C31.9289 25.7662 31.6514 25.9806 31.9706 26.0445C32.3942 26.1293 33.1713 25.7343 33.4414 25.2969C33.5823 25.0688 33.6561 24.7684 33.6561 24.4237C33.6561 22.9673 31.9405 22.2658 30.979 23.329C30.7875 23.5406 30.6801 23.5506 28.5933 23.5506C26.7518 23.5506 26.3986 23.5259 26.3477 23.3931C26.1884 22.9778 25.191 22.6795 24.696 22.899ZM6.34647 23.8594L5.53775 23.9197L5.17843 24.3942C4.8148 24.8744 4.15338 25.8131 4.00818 26.0549C3.94538 26.1596 4.80668 26.1868 8.17708 26.1868H12.4252L13.0304 25.334C13.4336 24.766 13.6356 24.3787 13.6356 24.1741V23.867L12.7663 23.8624C12.2881 23.8599 10.8301 23.8446 9.52615 23.8285C8.22218 23.8122 6.79135 23.8262 6.34647 23.8594ZM31.7805 24.099C31.6058 24.2738 31.622 24.6581 31.8108 24.8148C32.0218 24.9902 32.467 24.8659 32.5486 24.6088C32.697 24.1405 32.1211 23.7582 31.7805 24.099ZM75.7892 25.087C74.3219 25.5389 74.1027 27.5823 75.4497 28.2514C75.8296 28.4401 76.1665 28.4558 80.4145 28.4834L84.9718 28.513V26.7172V24.9214L80.6253 24.9288C77.1704 24.9346 76.1783 24.9671 75.7892 25.087ZM22.9101 32.2476C22.6853 32.5186 22.9378 32.9583 23.2937 32.9158C23.6519 32.8729 23.8464 32.583 23.6874 32.3289C23.5349 32.0852 23.0839 32.038 22.9101 32.2476Z" fill="url(#paint0_linear_0_107)"/>
</g>
<defs>
<linearGradient id="paint0_linear_0_107" x1="-22.4286" y1="5.71429" x2="-8.7573" y2="59.374" gradientUnits="userSpaceOnUse">
<stop stop-color="#2A1F14"/>
<stop offset="0.5" stop-color="#7A4A28"/>
<stop offset="1" stop-color="#B07840"/>
</linearGradient>
</defs>
</svg>
