<svg width="797" height="710" viewBox="0 0 797 710" fill="none" xmlns="http://www.w3.org/2000/svg">
<path fill-rule="evenodd" clip-rule="evenodd" d="M393.628 5.33732C371.668 20.9505 336.437 40.2809 309.939 51.2528C296.473 56.8294 271.765 64.9416 252.912 69.9772C239.121 73.6597 231.989 75.3145 212.39 79.3758L209.279 80.0208V108.409V136.797L217.722 136.928C222.365 136.999 229.462 136.985 233.495 136.897L240.827 136.736V121.105C240.827 109.344 241.101 105.397 241.937 105.163C242.549 104.992 248.047 103.577 254.157 102.019C300.743 90.1415 351.894 68.0562 391.522 42.7107C400.524 36.9529 401.511 36.5221 403.075 37.6664C407.951 41.2344 430.02 53.4633 443.205 59.9025C477.714 76.7561 510.077 88.9452 549.607 99.9761L564.299 104.076L564.285 116.289C564.22 177.896 552.671 238.097 530.094 294.519C523.814 310.211 506.769 343.986 499.037 356.054C495.83 361.06 493.206 365.352 493.206 365.591C493.206 365.83 495.026 366.968 497.25 368.119C503.665 371.438 510.059 380.629 510.082 386.56C510.093 389.521 511.262 390.247 512.925 388.324C515.506 385.343 524.185 370.892 532.581 355.6C573.855 280.419 595.402 190.267 595.402 92.7421V78.0738L581.405 74.8274C509.862 58.2303 460.271 38.0235 406.958 3.74488L401.134 0L393.628 5.33732ZM317.696 128.859L313.252 129.367L301.571 145.838L289.889 162.308L359.778 162.762C406.999 163.068 430.539 163.523 432.358 164.164C447.388 169.458 454.335 180.903 452.889 197.987C451.844 210.336 445.933 219.493 435.887 224.321L431.444 226.457L363.462 226.89L295.479 227.324L295.333 294.407C295.167 371.091 296.048 363.918 286.58 365.7C283.655 366.25 280.959 366.96 280.589 367.277C280.219 367.595 281.973 371.221 284.488 375.336C298.677 398.552 329.091 429.574 359.33 451.671C373.192 461.8 393.15 474.638 403.156 479.863C404.728 480.683 406.835 479.719 418.144 473.005C433.048 464.158 449.199 453.101 460.326 444.127C468.04 437.906 488.763 418.612 488.763 417.652C488.763 417.359 485.863 417.118 482.32 417.115C474.445 417.11 468.858 414.763 463.199 409.082C459.77 405.641 459.223 405.375 457.852 406.493C457.013 407.178 453.727 409.897 450.55 412.536C441.064 420.415 429.466 428.964 417.315 437.03C404.014 445.86 406.813 446.07 391.778 435.109C375.764 423.435 361.413 411.094 346.708 396.352L333.247 382.859V322.669V262.479L383.234 262.547C425.452 262.604 434.129 262.406 439.061 261.271C450.843 258.561 459.136 254.289 468.421 246.144C490.784 226.531 497.075 189.85 482.872 161.878C475.143 146.655 460.467 134.907 443.756 130.562C437.059 128.821 434.458 128.74 379.458 128.55C347.932 128.441 320.139 128.58 317.696 128.859ZM123.205 167.076C121.217 167.426 118.963 170.012 111.497 180.513C106.411 187.664 102.238 193.808 102.223 194.166C102.188 195.007 241.861 194.994 243.09 194.153C243.602 193.803 246.918 189.617 250.46 184.85C256.791 176.327 256.894 176.106 256.639 171.416L256.378 166.648L191.023 166.645C155.077 166.644 124.559 166.838 123.205 167.076ZM142.186 229.702C135.515 238.254 124.412 253.068 124.412 253.416C124.412 253.607 151.506 253.743 184.619 253.719L244.826 253.675L251.319 245.037C258.423 235.588 259.756 232.833 259.328 228.477L259.044 225.59L202.392 225.367L145.741 225.143L142.186 229.702ZM405.673 275.091C393.087 281.781 391.797 298.161 403.254 305.819C410.568 310.707 422.295 308.533 427.141 301.39L429.505 297.905L454.012 298.156C475.768 298.379 478.551 298.565 478.796 299.811C479.046 301.076 468.608 309.943 435.887 336.263C432.466 339.015 421.5 347.864 411.518 355.926C394.803 369.426 393.034 370.623 389.139 371.073C368.654 373.44 363.583 398.163 381.679 407.448C389.328 411.372 400.894 408.656 404.933 401.986L406.5 399.397H436.301H466.102L468.586 402.433C479.335 415.576 500.315 407.977 500.315 390.941C500.315 377.233 484.389 368.819 472.71 376.359C470.7 377.656 468.391 379.858 467.579 381.25L466.102 383.782L437.586 383.789L409.069 383.794L408.128 381.781C407.254 379.908 407.883 379.216 417.094 371.907C429.532 362.039 454.107 342.307 475.635 324.902L492.187 311.522L497.024 311.74C517.918 312.684 525.077 284.753 506.349 275.355C499.301 271.819 488.726 274.046 483.766 280.111L481.209 283.237L454.994 283.234L428.778 283.232L427.096 280.783C422.85 274.599 412.013 271.72 405.673 275.091ZM170.461 287.354C168.181 289.964 151.961 312.49 151.961 313.048C151.961 313.339 175.455 313.562 204.169 313.542L256.378 313.506L263.265 303.626C269.369 294.869 270.152 293.294 270.152 289.791V285.837H220.97C175.226 285.837 171.694 285.943 170.461 287.354ZM493.788 288.29C491.475 290.783 491.868 295.913 494.502 297.596C500.497 301.428 506.686 294.479 502.486 288.631C500.743 286.202 495.901 286.012 493.788 288.29ZM387.011 384.809C384.58 386.182 383.93 387.288 383.914 390.078C383.884 395.467 390.179 397.686 394.246 393.719C398.978 389.103 392.824 381.524 387.011 384.809ZM0 575.372V655.124H15.1072H30.2144V630.852V606.579H70.5062C115.981 606.579 118.342 606.318 130.863 599.899C147.595 591.323 154.83 577.053 154.948 552.4C155.101 520.271 141.629 502.04 113.892 496.842C108.728 495.874 96.2018 495.62 53.6857 495.62H0V575.372ZM495.65 496.556C493.37 497.851 493.294 523.366 495.564 525.204C496.77 526.181 505.906 526.394 546.682 526.394H596.332L582.759 539.434C567.086 554.493 529.585 589.786 505.425 612.217L488.763 627.687V639.971C488.763 650.771 488.959 652.428 490.388 653.689C491.874 655.001 498.572 655.124 568.452 655.124C641.376 655.124 644.959 655.051 646.362 653.539C648.476 651.26 648.537 629.929 646.437 627.879C645.197 626.671 638.905 626.516 590.673 626.509L536.306 626.501L546.081 617.127C551.458 611.971 565.054 599.219 576.296 588.787C587.537 578.355 596.935 569.599 597.179 569.328C597.423 569.058 603.022 563.788 609.62 557.618C616.219 551.446 627.316 540.995 634.281 534.392L646.944 522.387V510.737C646.944 500.243 646.768 498.916 645.167 497.354C643.418 495.648 642.222 495.62 570.297 495.646C522.306 495.663 496.671 495.976 495.65 496.556ZM30.2144 551.975V581.526L68.2259 581.267L106.237 581.007L112.089 578.195C121.055 573.888 124.593 567.724 125.791 554.325C126.517 546.212 124.466 536.345 121.086 531.685C119.738 529.827 116.437 527.097 113.748 525.617L108.861 522.926L69.5376 522.676L30.2144 522.424V551.975ZM711.372 536.38C674.42 541.776 654.085 567.634 657.676 604.658C659.096 619.3 663.845 629.339 673.966 639.092C687.364 652.003 706.299 657.76 731.606 656.618C776.394 654.595 799.267 631.269 796.823 590.109C795.807 573.002 791.62 563.041 781.147 552.809C768.893 540.838 755.839 536.405 731.367 535.903C723.302 535.737 714.304 535.952 711.372 536.38ZM188.995 549.685C184.267 556.535 180.398 562.386 180.398 562.688C180.398 562.989 199.809 563.236 223.533 563.236C264.688 563.236 266.826 563.314 270.098 564.943C274.417 567.092 277.178 571.395 277.864 577.046L278.398 581.44L242.95 581.451C204.295 581.462 202.713 581.621 192.426 586.562C185.393 589.939 179.17 596.11 175.749 603.1C172.028 610.703 171.253 622.593 173.987 630.13C177.73 640.451 185.275 647.75 196.883 652.281L203.059 654.691H255.045H307.032V613.514C307.032 572.61 307.018 572.299 304.955 566.473C300.993 555.282 293.806 547.031 283.72 542.093C274.265 537.465 271.831 537.23 233.241 537.23H197.593L188.995 549.685ZM313.697 537.786C313.697 538.578 326.303 562.052 335.226 577.876C339.154 584.843 345.967 596.979 350.367 604.846C354.766 612.712 362.125 625.85 366.72 634.039L375.076 648.929L362.098 670.749C354.961 682.749 348.905 693.115 348.642 693.784C348.242 694.802 350.93 695 365.067 695H381.97L390.195 680.047C394.718 671.823 408.885 646.564 421.677 623.917C458.292 559.088 469.212 539.416 469.212 538.283C469.212 537.495 465.133 537.231 452.994 537.237L436.776 537.244L414.212 578.849L391.648 620.454L380.522 599.864C374.404 588.539 364.308 569.911 358.087 558.468L346.777 537.663L330.237 537.427C321.14 537.297 313.697 537.459 313.697 537.786ZM713.593 563.269C698.26 566.389 688.233 577.533 687.172 592.636C685.548 615.751 700.015 629.259 726.479 629.338C752.191 629.415 765.798 618.851 766.757 598.068C767.591 580.014 761.96 570.312 747.491 564.874C741.807 562.738 721.035 561.754 713.593 563.269ZM208.801 605.929C201.917 609.315 199.683 617.89 204.144 623.799C207.744 628.566 211.481 629.038 245.936 629.08L277.262 629.118V616.548V603.979H245.014C213.339 603.979 212.696 604.013 208.801 605.929Z" fill="#F8F0E5"/>
</svg>
