<svg width="1490" height="380" viewBox="0 0 1490 380" fill="none" xmlns="http://www.w3.org/2000/svg">
<path fill-rule="evenodd" clip-rule="evenodd" d="M228.895 1.00704C222.436 5.82404 199.126 19.5611 185.164 26.7791C158.422 40.6021 121.96 53.872 92.6377 60.452L82.3697 62.756L82.6377 85.801L82.9057 108.846L94.3257 109.13C102.789 109.341 105.956 109.082 106.56 108.13C107.009 107.424 107.382 101.579 107.391 95.1411L107.406 83.437L111.156 82.7691C116.843 81.7551 142.273 73.7711 153.738 69.3991C175.885 60.9531 199.972 48.816 219.599 36.213C225.48 32.436 230.527 29.346 230.814 29.346C231.101 29.346 235.065 31.749 239.621 34.686C265.799 51.558 303.269 67.922 341.906 79.354L355.906 83.496L355.247 104.171C353.212 167.974 338.297 223.581 309.857 273.403C305.636 280.797 301.751 287.38 301.224 288.034C300.552 288.866 301.11 289.663 303.085 290.694C307.761 293.136 311.622 297.978 312.897 302.999C313.559 305.609 314.514 307.882 315.019 308.05C316.055 308.396 328.597 287.784 336.219 273.21C356.94 233.586 370.941 185.999 376.873 135.028C378.644 119.813 380.686 79.913 380.229 69.47L379.906 62.094L361.431 57.161C310.734 43.623 273.996 27.958 239.906 5.34304C236.056 2.78904 232.451 0.435051 231.895 0.112051C231.339 -0.211949 229.989 0.19104 228.895 1.00704ZM446.406 195.803V302.346H464.906H483.406V269.901V237.456L537.656 237.108C588.647 236.781 592.328 236.638 598.931 234.726C610.965 231.243 619.213 226.564 626.906 218.858C635.05 210.7 638.239 205.211 642.031 192.824C644.608 184.408 644.782 182.657 644.825 164.846C644.864 148.237 644.588 144.784 642.626 137.409C637.272 117.285 627.318 104.52 610.906 96.7311C595.991 89.6531 599.758 89.946 519.156 89.586L446.406 89.26V195.803ZM1098.01 91.642C1096.45 92.789 1096.24 94.81 1096.21 109.148C1096.18 120.622 1096.53 125.794 1097.41 126.852C1098.49 128.149 1107.25 128.346 1163.99 128.346H1229.34L1190.62 166.577C1169.33 187.604 1137.62 218.977 1120.16 236.295L1088.41 267.783V283.409C1088.41 297.278 1088.61 299.222 1090.23 300.691C1091.91 302.208 1100.29 302.345 1190.48 302.331C1244.62 302.322 1289.4 301.985 1290.01 301.581C1292.52 299.899 1293.21 296.142 1293.35 283.144C1293.49 270.556 1293.33 269.274 1291.45 267.394C1289.43 265.369 1288.6 265.346 1219.16 265.329L1148.91 265.312L1186.41 228.063C1207.03 207.577 1239.09 175.927 1257.66 157.73L1291.41 124.644V109.15C1291.41 95.41 1291.2 93.469 1289.58 92.001C1287.9 90.486 1279.81 90.346 1193.77 90.346C1118.36 90.346 1099.44 90.602 1098.01 91.642ZM160.675 105.096C156.592 110.377 144.406 128.095 144.406 128.751C144.406 129.051 168.831 129.42 198.684 129.571L252.962 129.846L257.925 132.401C265.985 136.55 268.83 141.566 269.254 152.377C269.559 160.156 269.294 161.911 267.091 166.724C264.31 172.797 258.351 177.931 253.038 178.83C251.315 179.121 227.181 179.469 199.406 179.603L148.906 179.846L148.647 232.754C148.468 269.304 148.049 286.071 147.292 286.984C146.689 287.711 143.993 288.597 141.301 288.954C138.609 289.311 136.406 290.017 136.406 290.523C136.406 291.901 142.921 301.818 149.756 310.846C158.324 322.162 181.1 344.665 192.906 353.48C211.99 367.728 229.736 379.346 232.417 379.346C234.538 379.346 257.042 365.257 267.748 357.226C278.067 349.486 297.406 331.894 297.406 330.248C297.406 329.752 295.138 329.346 292.366 329.346C286.577 329.346 280.625 326.712 277.533 322.78C274.964 319.514 275.054 319.479 265.84 327.346C256.966 334.923 243.292 344.858 237.023 348.282L232.64 350.677L225.273 345.363C212.936 336.464 196.017 321.785 186.465 311.691L177.406 302.12V255.233V208.346L215.156 208.329C244.106 208.315 254.487 207.976 259.686 206.875C292.209 199.983 309.313 159.876 293.282 128.096C289.371 120.341 279.633 110.583 272.158 106.925C261.062 101.497 259.649 101.371 209.74 101.358L163.574 101.346L160.675 105.096ZM486.644 124.16L483.383 124.474L483.644 163.66L483.906 202.846L529.906 203.158C581.47 203.508 586.58 203.098 594.154 198C605.175 190.582 608.842 181.559 608.846 161.846C608.849 145.775 606.845 139.484 599.407 132.22C591.411 124.411 591.673 124.445 537.406 124.126C511.281 123.972 488.438 123.987 486.644 124.16ZM7.62571 142.096C3.84671 147.459 0.424702 152.409 0.0217023 153.096C-0.562298 154.09 10.4697 154.346 53.8227 154.346H108.358L113.882 147.007C118.238 141.219 119.406 138.894 119.406 136.007V132.346H66.9507H14.4957L7.62571 142.096ZM1383.58 148.351C1345.65 153.688 1320.89 175.001 1313.8 208.402C1311.82 217.731 1312.38 240.846 1314.81 249.846C1322.82 279.573 1346.28 298.859 1380.61 303.934C1393.82 305.886 1417.4 305.38 1428.91 302.897C1460.77 296.023 1481.9 275.808 1488.54 245.846C1490.83 235.544 1490.28 210.433 1487.57 200.903C1479.82 173.696 1461.57 156.868 1432.63 150.253C1422.63 147.968 1394.15 146.864 1383.58 148.351ZM700.678 154.096C694.344 162.298 681.406 181.188 681.406 182.235C681.406 183.036 696.498 183.346 735.54 183.346C773.781 183.346 790.813 183.687 793.554 184.508C800.997 186.739 806.406 194.58 806.406 203.14V206.202L761.156 206.575C716.11 206.947 715.869 206.96 707.744 209.472C682.053 217.413 667.581 238.504 671.094 262.885C673.873 282.175 687.342 296.49 707.406 301.479C711.772 302.564 726.201 302.846 777.406 302.846H841.906L842.18 252.846C842.352 221.357 842.063 200.293 841.398 195.95C838.762 178.727 828.231 163.704 813.993 156.856C801.836 151.009 794.953 150.346 746.359 150.346H703.574L700.678 154.096ZM857.195 150.89C856.684 151.401 871.754 179.997 890.374 213.846C900.205 231.718 915.097 258.967 926.717 280.346L935.142 295.846L932.867 299.846C931.616 302.046 924.026 315.231 915.999 329.147C907.973 343.062 901.406 354.875 901.406 355.397C901.406 355.965 909.728 356.344 922.156 356.341L942.906 356.335L948.16 346.591C951.049 341.231 957.275 329.871 961.994 321.346C966.713 312.821 973.174 301.121 976.352 295.346C991.905 267.084 1012.21 230.46 1022.93 211.346C1042.97 175.601 1056.08 151.35 1055.61 150.887C1054.39 149.663 1015.66 150.333 1014.62 151.596C1014.06 152.284 1006.74 165.671 998.368 181.346C981.224 213.441 964.893 243.743 959.678 253.14L956.184 259.435L927.741 206.178C912.098 176.887 898.818 152.342 898.23 151.634C897.151 150.334 858.452 149.633 857.195 150.89ZM31.2407 181.096C28.9447 183.582 18.8997 197.025 17.0437 200.096C16.4427 201.089 25.8467 201.346 62.7667 201.346H109.246L114.576 194.123C121.735 184.42 121.477 184.949 120.776 181.444L120.156 178.346H76.9677H33.7797L31.2407 181.096ZM1383.41 182.24C1369.05 186.159 1359.05 193.736 1353.31 205.036C1349.93 211.683 1349.91 211.849 1349.91 225.292C1349.92 241.908 1351.66 247.268 1359.95 256.219C1369.94 267.008 1381.75 271.306 1401.5 271.331C1432.55 271.371 1449.38 258.703 1453.5 232.195C1456.38 213.604 1448.13 194.959 1433.5 186.996C1421.53 180.481 1398.03 178.249 1383.41 182.24ZM234.372 217.166C223.221 222.109 222.274 237.734 232.823 242.74C238.888 245.617 246.77 243.772 250.096 238.697C251.622 236.367 251.804 236.346 270.462 236.346C280.816 236.346 289.541 236.756 289.851 237.257C290.447 238.221 287.72 240.553 252.906 268.848C240.806 278.683 229.217 288.218 227.153 290.038C224.554 292.329 222.402 293.347 220.153 293.35C212.834 293.358 206.416 300.407 206.41 308.446C206.399 321.124 221.887 328.088 230.825 319.425L234.001 316.346H256.906H279.811L283.052 319.487C291.932 328.094 306.413 321.732 306.402 309.228C306.391 295.884 289.886 290.293 281.6 300.826L279.618 303.346H257.619C231.327 303.346 231.189 303.27 241.722 294.631C303.014 244.358 300.381 246.391 303.41 246.997C307.43 247.801 314.805 244.055 317.368 239.907C318.705 237.744 319.406 234.895 319.406 231.626C319.406 217.814 303.124 211.161 293.999 221.244C292.182 223.251 291.163 223.346 271.358 223.346C253.882 223.346 250.53 223.111 250.047 221.852C248.535 217.913 239.07 215.084 234.372 217.166ZM60.2297 226.274L52.5547 226.846L49.1447 231.346C45.6937 235.9 39.4167 244.802 38.0387 247.096C37.4427 248.088 45.6167 248.346 77.6027 248.346H117.919L123.662 240.259C127.489 234.872 129.406 231.199 129.406 229.259V226.346L121.156 226.303C116.618 226.279 102.781 226.134 90.4057 225.981C78.0307 225.827 64.4517 225.959 60.2297 226.274ZM301.606 228.546C299.948 230.204 300.102 233.849 301.893 235.335C303.896 236.998 308.121 235.819 308.895 233.381C310.304 228.94 304.838 225.314 301.606 228.546ZM719.26 237.916C705.335 242.202 703.255 261.581 716.038 267.926C719.644 269.716 722.841 269.865 763.156 270.127L806.406 270.407V253.377V236.346L765.156 236.416C732.368 236.471 722.953 236.779 719.26 237.916ZM217.423 305.825C215.29 308.395 217.686 312.565 221.064 312.162C224.463 311.755 226.309 309.006 224.8 306.596C223.353 304.285 219.073 303.837 217.423 305.825Z" fill="#F8F0E5"/>
</svg>
